<?xml version="1.0" standalone="no"?>
<!DOCTYPE svg PUBLIC "-//W3C//DTD SVG 20010904//EN"
 "http://www.w3.org/TR/2001/REC-SVG-20010904/DTD/svg10.dtd">
<svg version="1.0" xmlns="http://www.w3.org/2000/svg"
 width="700.000000pt" height="700.000000pt" viewBox="0 0 700.000000 700.000000"
 preserveAspectRatio="xMidYMid meet">
<metadata>
Created by potrace 1.11, written by Peter Selinger 2001-2013
</metadata>
<g transform="translate(0.000000,700.000000) scale(0.100000,-0.100000)"
fill="#000000" stroke="none">
<path d="M871 6905 c-85 -50 -106 -93 -126 -265 -7 -55 -14 -117 -20 -165 -5
-44 -17 -141 -30 -245 -3 -19 -7 -55 -10 -80 -3 -25 -7 -61 -10 -80 -2 -19 -7
-57 -10 -85 -3 -27 -7 -61 -10 -75 -2 -14 -7 -52 -10 -85 -3 -33 -7 -71 -10
-85 -2 -14 -6 -45 -9 -70 -3 -25 -8 -65 -11 -90 -3 -25 -7 -61 -10 -80 -5 -39
-12 -93 -20 -160 -3 -25 -8 -61 -10 -80 -3 -19 -7 -60 -10 -90 -3 -30 -7 -68
-10 -85 -8 -49 -13 -92 -30 -240 -8 -77 -17 -151 -20 -165 -3 -14 -7 -50 -10
-80 -3 -30 -8 -66 -10 -80 -2 -14 -7 -50 -10 -80 -6 -58 -14 -118 -20 -160 -2
-14 -7 -50 -10 -80 -3 -30 -8 -71 -10 -90 -11 -81 -65 -519 -70 -565 -3 -27
-10 -84 -15 -126 -6 -41 -12 -95 -15 -120 -2 -24 -7 -60 -9 -79 -3 -19 -8 -53
-10 -75 -3 -22 -17 -134 -31 -250 -14 -115 -28 -228 -30 -250 -3 -22 -7 -56
-10 -75 -2 -19 -7 -59 -11 -89 -3 -30 -7 -61 -9 -70 -1 -9 -6 -45 -10 -81 -3
-36 -8 -76 -10 -90 -4 -31 -13 -112 -20 -165 -2 -22 -9 -71 -14 -110 -5 -38
-13 -97 -16 -130 -4 -33 -8 -71 -10 -85 -2 -14 -7 -52 -10 -85 -4 -33 -8 -71
-10 -85 -10 -71 -33 -251 -40 -315 -6 -58 -11 -100 -25 -205 -15 -110 1 -179
53 -230 52 -51 78 -62 187 -75 25 -3 61 -7 80 -10 19 -2 132 -16 250 -30 118
-14 229 -28 245 -30 44 -7 182 -24 245 -30 30 -3 66 -8 80 -10 14 -2 50 -7 80
-11 30 -3 66 -7 80 -9 14 -2 54 -6 90 -10 36 -4 72 -8 80 -10 8 -2 40 -7 70
-10 54 -5 101 -11 170 -20 19 -3 53 -7 75 -9 22 -3 112 -14 200 -25 88 -11
185 -23 215 -26 30 -4 66 -8 80 -10 14 -2 50 -7 80 -10 30 -3 66 -8 80 -10 14
-2 48 -6 75 -10 28 -3 66 -8 85 -10 19 -2 60 -7 90 -11 30 -3 62 -7 70 -9 8
-1 44 -6 80 -10 36 -3 76 -8 90 -10 24 -4 158 -20 250 -31 25 -3 56 -7 70 -9
14 -3 52 -7 85 -10 33 -4 71 -8 85 -11 14 -2 50 -6 80 -9 30 -3 69 -8 85 -10
17 -2 53 -7 80 -10 28 -3 65 -8 83 -11 18 -2 54 -6 80 -9 26 -3 63 -8 82 -10
19 -2 71 -9 115 -14 44 -6 118 -15 165 -21 47 -6 103 -13 125 -15 22 -3 56 -8
75 -10 19 -3 62 -7 95 -10 33 -4 67 -8 75 -10 8 -2 44 -7 80 -10 36 -4 73 -9
83 -11 10 -2 48 -6 85 -9 37 -3 74 -8 82 -10 8 -2 42 -7 75 -10 33 -3 71 -8
85 -10 35 -6 145 -20 410 -51 104 -12 126 -15 150 -19 14 -2 52 -7 85 -10 33
-3 67 -7 75 -10 28 -7 155 -18 192 -16 78 4 155 57 184 127 8 19 19 72 25 117
5 45 12 93 14 107 2 14 7 54 10 90 4 36 9 73 10 82 2 9 6 43 10 75 3 32 8 69
10 83 2 14 6 48 9 75 7 58 54 443 61 495 10 81 16 127 21 165 2 22 6 56 9 75
3 19 7 58 10 85 3 28 7 66 10 85 2 19 7 58 10 85 4 28 8 61 10 75 2 14 7 50
10 80 3 30 8 66 10 80 2 14 6 50 10 80 3 30 7 71 10 90 8 57 15 112 20 160 3
25 7 61 10 80 4 32 47 379 60 490 3 25 8 62 10 83 3 20 7 54 10 75 4 31 44
363 60 497 3 22 10 76 15 120 16 125 19 146 25 200 3 28 8 66 10 85 2 19 7 58
10 85 4 28 8 61 10 75 2 14 7 48 10 75 3 28 7 66 10 85 2 19 7 58 10 85 3 28
12 100 20 160 8 61 19 154 25 209 7 54 13 106 15 115 1 9 6 47 10 84 3 37 8
76 10 85 1 9 6 44 10 77 4 33 8 71 10 85 2 14 7 54 10 90 4 36 9 67 10 70 2 3
6 41 10 85 4 44 9 82 10 85 2 3 6 39 10 80 4 41 9 78 11 81 1 3 6 37 10 75 3
38 8 78 10 89 12 60 15 173 4 200 -20 52 -59 101 -100 124 -37 21 -156 40
-465 75 -54 7 -110 14 -165 21 -19 3 -60 7 -90 10 -30 4 -66 8 -80 10 -14 2
-50 7 -80 10 -30 4 -66 8 -80 10 -14 2 -52 6 -85 10 -33 3 -71 8 -85 10 -61 9
-139 19 -405 50 -16 2 -66 8 -110 14 -44 6 -102 13 -130 16 -27 3 -61 7 -75 9
-14 3 -50 7 -80 11 -30 3 -71 7 -90 10 -19 3 -53 7 -75 10 -100 11 -189 21
-255 30 -42 5 -56 7 -315 39 -110 14 -222 28 -250 31 -27 2 -66 7 -85 10 -37
5 -83 11 -165 20 -27 4 -61 8 -75 10 -14 2 -50 7 -80 10 -30 3 -66 8 -80 10
-14 2 -50 6 -80 10 -50 5 -163 19 -250 30 -19 3 -55 7 -80 10 -25 3 -79 9
-120 15 -41 5 -99 12 -129 15 -30 4 -61 8 -70 10 -9 2 -46 6 -82 9 -36 4 -76
8 -90 10 -13 3 -51 8 -84 12 -33 4 -67 8 -75 9 -14 2 -67 8 -180 21 -25 3 -56
7 -70 9 -14 2 -83 11 -155 20 -182 21 -216 25 -245 30 -14 2 -68 9 -120 15
-52 6 -111 13 -130 15 -19 3 -59 7 -88 11 -29 3 -62 7 -72 9 -10 2 -46 6 -79
10 -33 3 -70 8 -83 11 -13 2 -68 7 -123 10 -95 5 -102 4 -144 -21z m589 -350
c113 -14 221 -28 240 -30 19 -2 58 -7 85 -10 28 -4 61 -8 75 -10 14 -2 50 -7
80 -10 30 -3 66 -8 80 -10 14 -2 50 -7 80 -10 63 -6 120 -13 170 -20 41 -6 69
-10 245 -30 72 -9 145 -18 163 -20 18 -3 54 -8 80 -11 26 -3 58 -7 72 -9 14
-2 54 -6 90 -10 36 -3 90 -10 120 -15 30 -5 82 -12 115 -15 33 -3 74 -8 90
-10 17 -2 50 -6 75 -9 162 -20 420 -52 490 -61 60 -8 113 -14 170 -20 30 -3
70 -8 88 -11 17 -2 47 -6 65 -8 17 -3 59 -8 92 -11 33 -3 71 -8 85 -10 14 -3
48 -7 75 -10 52 -6 68 -8 205 -25 47 -6 103 -13 125 -16 22 -2 56 -6 75 -9 19
-3 55 -7 80 -10 25 -3 61 -8 80 -10 19 -3 60 -7 90 -10 30 -3 66 -7 80 -10 28
-4 113 -15 240 -29 50 -6 85 -10 160 -21 14 -2 50 -7 80 -10 67 -7 352 -42
400 -49 19 -3 78 -10 130 -16 115 -13 154 -18 200 -24 19 -3 60 -8 90 -12 109
-12 160 -59 161 -150 0 -27 -2 -58 -4 -69 -3 -11 -8 -49 -12 -85 -3 -36 -8
-76 -10 -90 -2 -14 -7 -50 -10 -80 -3 -30 -8 -66 -10 -80 -2 -14 -6 -47 -10
-75 -6 -53 -8 -68 -25 -205 -6 -47 -13 -103 -16 -125 -2 -22 -6 -56 -9 -75 -4
-31 -7 -57 -20 -170 -1 -14 -5 -47 -9 -75 -9 -70 -13 -102 -20 -165 -4 -30
-11 -86 -16 -125 -5 -38 -11 -90 -14 -115 -6 -46 -44 -360 -51 -415 -2 -16 -6
-50 -9 -75 -9 -70 -15 -120 -22 -179 -3 -30 -7 -63 -9 -73 -2 -11 -7 -47 -10
-81 -3 -34 -8 -73 -10 -87 -2 -14 -11 -83 -20 -155 -9 -71 -18 -147 -20 -167
-3 -21 -7 -57 -10 -80 -3 -24 -10 -79 -16 -123 -13 -105 -17 -139 -24 -205 -3
-30 -8 -66 -10 -80 -2 -14 -6 -45 -9 -70 -3 -25 -8 -65 -11 -90 -3 -25 -7 -61
-10 -80 -3 -19 -7 -55 -10 -80 -3 -25 -9 -79 -15 -120 -5 -41 -11 -95 -14
-120 -10 -79 -46 -383 -52 -425 -2 -22 -7 -51 -9 -65 -2 -14 -7 -52 -10 -84
-3 -33 -8 -74 -10 -93 -12 -82 -14 -102 -20 -158 -3 -33 -8 -73 -11 -90 -3
-16 -7 -50 -10 -75 -2 -25 -6 -61 -9 -80 -6 -48 -12 -94 -30 -245 -20 -162
-22 -173 -50 -211 -26 -34 -83 -56 -130 -49 -16 2 -73 9 -125 15 -52 6 -108
13 -125 15 -78 10 -225 28 -410 50 -47 5 -120 15 -155 20 -14 2 -52 6 -85 10
-33 3 -71 7 -85 10 -14 2 -45 6 -70 9 -88 10 -215 26 -240 30 -14 3 -56 7 -95
11 -38 4 -72 8 -75 10 -3 1 -37 5 -75 9 -39 4 -81 8 -95 11 -29 4 -94 12 -165
20 -27 3 -63 7 -80 9 -16 3 -57 8 -90 12 -33 3 -68 8 -78 10 -10 2 -64 8 -120
15 -56 6 -111 13 -122 14 -11 2 -81 10 -155 19 -74 9 -146 18 -160 20 -14 3
-50 7 -80 10 -30 3 -73 8 -95 11 -76 11 -110 15 -165 21 -30 3 -66 7 -80 9
-28 4 -83 11 -150 19 -95 11 -386 47 -415 51 -34 5 -165 21 -237 29 -86 10
-143 17 -168 21 -14 2 -52 7 -85 10 -33 3 -71 8 -85 10 -14 3 -45 7 -70 10
-25 3 -97 11 -160 19 -63 8 -142 18 -175 21 -33 4 -67 8 -75 10 -8 2 -46 7
-85 11 -38 3 -78 8 -88 10 -10 2 -46 6 -80 9 -34 4 -75 9 -92 11 -16 2 -50 6
-75 9 -25 3 -58 7 -75 10 -16 3 -52 7 -80 10 -67 8 -114 34 -137 75 -23 43
-22 59 1 250 11 85 23 180 26 210 4 30 8 66 10 80 3 14 7 47 9 74 3 26 8 65
10 85 3 20 8 54 10 76 3 22 8 58 10 80 3 22 15 117 26 210 11 94 22 186 25
205 2 19 9 76 15 125 6 50 13 101 15 115 2 14 7 50 10 80 4 30 8 71 11 90 2
19 6 58 9 85 5 45 10 85 20 155 2 14 6 48 10 75 3 28 7 66 10 85 2 19 6 58 10
85 3 28 7 66 10 85 6 47 14 115 21 170 2 25 9 77 14 115 5 39 12 93 15 120 3
28 7 61 10 75 2 14 7 52 10 85 3 33 7 71 10 85 4 26 14 102 20 160 4 37 9 77
25 200 5 41 12 98 15 125 3 28 10 84 15 125 5 41 12 100 15 130 4 30 8 66 10
80 7 43 14 103 21 165 3 33 8 67 9 75 2 8 6 44 10 80 4 36 9 74 11 85 2 11 6
43 9 70 3 28 7 68 10 90 5 42 33 264 40 325 16 129 37 300 40 330 3 19 7 55
10 80 3 25 7 61 10 80 2 19 9 76 15 125 6 50 13 104 16 120 8 45 45 93 84 109
39 16 45 15 330 -19z"/>
<path d="M2722 6025 c-92 -28 -176 -119 -196 -211 -4 -16 -9 -725 -12 -1575
-3 -849 -6 -1611 -6 -1694 -2 -141 5 -282 17 -350 2 -16 7 -43 9 -60 3 -16 8
-43 11 -59 62 -301 158 -513 352 -777 60 -82 221 -223 338 -297 151 -95 396
-181 590 -208 17 -2 43 -6 58 -9 40 -7 188 -16 290 -19 374 -9 810 129 1072
338 98 78 230 227 303 341 106 169 197 440 218 656 10 101 11 339 1 425 -28
255 -154 566 -305 749 -64 78 -151 163 -212 205 -19 13 -37 27 -40 30 -26 31
-264 133 -385 166 -235 63 -401 79 -795 79 -235 0 -280 -3 -310 -17 -66 -31
-115 -102 -139 -203 -17 -67 -22 -228 -9 -295 21 -118 106 -227 213 -276 50
-23 69 -25 232 -29 292 -7 401 -23 527 -75 225 -94 337 -228 376 -450 12 -65
14 -220 5 -275 -36 -201 -156 -359 -331 -436 -58 -25 -176 -60 -182 -54 -2 2
-16 -1 -30 -6 -14 -6 -78 -12 -142 -14 -206 -6 -366 28 -497 107 -79 46 -182
152 -231 234 -39 65 -95 201 -106 256 -3 13 -10 48 -16 78 -11 56 -17 101 -26
225 -2 39 -4 288 -4 555 1 267 2 989 3 1605 l2 1120 -29 53 c-45 81 -149 152
-251 171 -73 14 -314 11 -363 -4z"/>
<path d="M1357 4263 c-3 -10 -21 -54 -41 -98 -163 -371 -157 -740 17 -995 64
-93 179 -200 262 -243 104 -53 244 -74 351 -51 177 37 359 204 403 370 43 162
-7 370 -113 468 -102 94 -236 105 -479 36 -90 -25 -140 -21 -209 17 -126 68
-188 212 -183 421 1 50 1 92 0 92 -2 0 -5 -8 -8 -17z"/>
</g>
</svg>
