<?xml version="1.0" standalone="no"?>
<!DOCTYPE svg PUBLIC "-//W3C//DTD SVG 20010904//EN"
 "http://www.w3.org/TR/2001/REC-SVG-20010904/DTD/svg10.dtd">
<svg version="1.0" xmlns="http://www.w3.org/2000/svg"
 width="512.000000pt" height="512.000000pt" viewBox="0 0 512.000000 512.000000"
 preserveAspectRatio="xMidYMid meet">
<metadata>
Created by potrace 1.11, written by Peter Selinger 2001-2013
</metadata>
<g transform="translate(0.000000,512.000000) scale(0.100000,-0.100000)"
fill="#000000" stroke="none">
<path d="M665 5063 c-32 -8 -74 -42 -90 -73 -13 -26 -28 -103 -39 -205 -4 -39
-21 -177 -32 -260 -2 -22 -7 -56 -9 -75 -2 -19 -7 -54 -10 -77 -3 -24 -7 -62
-10 -85 -3 -24 -8 -59 -10 -78 -3 -19 -7 -60 -10 -90 -3 -30 -7 -66 -10 -80
-4 -29 -16 -124 -20 -160 -4 -47 -16 -138 -19 -156 -2 -11 -7 -53 -12 -94 -5
-41 -9 -79 -9 -85 -1 -5 -5 -41 -10 -80 -4 -38 -9 -77 -10 -86 -2 -9 -6 -40
-10 -70 -3 -30 -10 -90 -16 -134 -5 -44 -12 -98 -15 -120 -2 -22 -7 -51 -9
-65 -2 -14 -7 -52 -10 -85 -3 -33 -8 -71 -10 -85 -4 -25 -12 -88 -21 -170 -4
-38 -18 -156 -39 -320 -8 -65 -24 -195 -29 -240 -12 -100 -17 -136 -21 -160
-2 -14 -7 -47 -10 -75 -5 -50 -12 -110 -20 -175 -3 -19 -7 -55 -10 -80 -3 -25
-26 -209 -51 -410 -59 -481 -60 -498 -39 -544 30 -64 83 -88 218 -101 37 -3
77 -8 87 -10 10 -2 47 -6 82 -10 35 -3 70 -8 78 -10 8 -2 44 -7 80 -10 36 -3
79 -8 95 -11 37 -6 92 -12 170 -20 33 -3 62 -8 65 -9 3 -2 42 -7 85 -10 44 -4
82 -8 85 -10 3 -2 34 -6 70 -10 36 -3 76 -8 90 -10 14 -2 51 -7 83 -10 32 -4
67 -8 77 -10 10 -2 47 -6 82 -10 35 -3 70 -8 78 -10 8 -2 44 -6 80 -10 36 -3
76 -8 90 -10 31 -5 71 -10 235 -30 72 -8 146 -17 165 -20 19 -2 60 -7 90 -11
30 -3 66 -7 80 -9 23 -3 144 -18 245 -31 22 -2 60 -7 85 -10 25 -2 59 -6 75
-9 17 -2 53 -7 80 -10 28 -3 86 -10 130 -16 44 -5 96 -12 115 -14 19 -2 73 -9
120 -15 47 -6 103 -13 125 -16 22 -2 56 -6 75 -9 19 -2 60 -7 90 -10 30 -4 66
-8 80 -10 14 -2 50 -7 80 -10 30 -3 66 -8 80 -10 14 -2 48 -6 75 -10 28 -3 68
-8 90 -11 22 -3 58 -7 80 -9 50 -6 119 -14 165 -20 19 -3 58 -8 85 -11 28 -3
76 -9 109 -13 162 -22 236 23 251 152 3 23 8 58 10 78 3 20 8 56 10 80 2 24 7
60 10 79 3 19 7 58 10 85 3 28 10 86 16 130 5 44 12 98 15 120 2 22 7 56 9 75
3 19 7 55 10 80 3 25 10 81 16 125 5 44 12 96 14 115 2 19 7 60 10 90 4 30 8
66 10 80 3 14 7 45 9 70 3 25 7 63 10 85 6 43 13 102 20 163 14 111 57 461 61
488 2 17 7 57 10 90 3 32 8 70 10 84 2 14 7 50 10 80 3 30 8 66 10 80 3 14 7
48 10 75 3 28 7 66 10 85 3 19 7 55 10 80 3 25 7 61 10 80 2 19 7 60 10 90 3
30 8 66 11 80 2 14 6 43 8 65 15 133 28 243 31 265 10 73 15 110 20 160 4 30
8 66 10 80 2 14 6 48 10 75 3 28 10 86 16 130 5 44 12 97 14 118 3 20 7 54 10
75 54 435 57 467 46 502 -13 40 -35 69 -71 92 -25 16 -47 21 -145 33 -27 3
-64 8 -81 10 -17 2 -57 7 -90 10 -32 4 -70 8 -84 10 -14 3 -50 7 -80 10 -30 4
-66 8 -80 11 -14 2 -50 6 -80 10 -30 3 -66 7 -80 9 -14 2 -45 6 -70 9 -25 3
-101 13 -170 21 -69 9 -141 17 -160 20 -19 2 -60 7 -90 10 -30 3 -66 8 -80 10
-14 2 -47 7 -75 10 -27 3 -61 7 -75 10 -14 2 -52 7 -85 10 -33 3 -71 8 -85 10
-14 2 -47 7 -75 10 -144 16 -314 36 -345 41 -50 7 -334 42 -400 49 -30 3 -62
8 -70 10 -8 2 -46 6 -83 10 -37 3 -76 8 -86 10 -15 3 -45 6 -161 20 -34 4
-128 15 -170 20 -19 3 -111 14 -205 25 -93 12 -181 23 -195 25 -14 2 -52 6
-85 10 -32 4 -66 8 -75 10 -8 2 -44 6 -80 9 -36 4 -76 8 -90 11 -25 4 -88 12
-170 20 -25 3 -58 7 -75 10 -16 3 -48 7 -70 9 -22 3 -78 10 -125 16 -88 10
-121 11 -155 3z m310 -258 c33 -3 67 -8 75 -10 8 -2 45 -6 82 -10 37 -3 77 -8
90 -10 29 -5 98 -13 163 -20 28 -3 68 -8 90 -11 62 -9 85 -12 150 -19 33 -4
74 -8 90 -10 66 -8 372 -46 405 -50 19 -3 54 -7 78 -10 23 -3 60 -7 82 -10 22
-3 57 -7 78 -10 20 -2 55 -7 77 -10 22 -3 63 -8 90 -10 28 -3 66 -7 85 -10 19
-2 112 -14 205 -25 94 -12 181 -23 195 -25 14 -2 52 -6 85 -10 32 -4 66 -8 75
-10 8 -2 44 -6 80 -9 36 -4 76 -8 90 -10 29 -5 94 -13 165 -21 28 -3 64 -7 80
-10 33 -4 101 -13 155 -20 19 -2 62 -7 95 -11 33 -3 71 -8 85 -10 14 -2 81
-11 150 -19 196 -23 213 -26 240 -30 14 -2 50 -6 80 -9 30 -4 73 -9 95 -12 47
-6 79 -10 160 -19 109 -12 131 -21 153 -66 11 -22 19 -50 17 -62 -5 -33 -16
-117 -21 -162 -2 -22 -8 -74 -13 -115 -6 -41 -12 -97 -16 -125 -3 -27 -7 -66
-10 -85 -3 -19 -7 -54 -10 -77 -8 -66 -15 -124 -20 -163 -2 -19 -7 -57 -10
-85 -4 -27 -13 -99 -20 -160 -8 -60 -17 -132 -20 -160 -3 -27 -10 -86 -15
-130 -6 -44 -13 -96 -15 -115 -11 -93 -18 -148 -21 -175 -3 -33 -12 -100 -19
-155 -5 -33 -8 -64 -20 -165 -3 -22 -10 -76 -15 -120 -13 -95 -17 -132 -25
-205 -4 -30 -8 -66 -10 -80 -2 -14 -7 -50 -10 -80 -3 -30 -8 -66 -10 -80 -2
-14 -6 -52 -10 -85 -4 -32 -8 -67 -10 -76 -2 -10 -6 -46 -9 -81 -3 -34 -8 -74
-10 -88 -6 -34 -16 -116 -22 -170 -2 -25 -6 -56 -9 -70 -3 -14 -7 -52 -10 -85
-4 -33 -8 -67 -10 -75 -2 -8 -7 -46 -11 -85 -3 -38 -8 -77 -9 -85 -2 -8 -6
-44 -10 -80 -4 -36 -8 -72 -10 -80 -2 -9 -11 -85 -20 -170 -20 -180 -30 -216
-68 -244 -32 -24 -55 -24 -232 -2 -192 25 -196 25 -242 31 -24 3 -62 7 -85 10
-24 3 -60 8 -80 10 -122 16 -175 22 -248 30 -30 3 -66 8 -80 10 -14 3 -47 7
-75 10 -27 3 -61 7 -75 9 -14 2 -56 8 -95 12 -38 4 -72 8 -75 9 -3 1 -36 5
-75 9 -38 4 -83 10 -100 12 -96 12 -130 16 -144 19 -9 2 -47 6 -83 9 -37 4
-75 8 -85 10 -10 2 -49 7 -88 11 -38 4 -72 8 -75 10 -3 1 -36 6 -75 9 -38 4
-81 9 -95 11 -14 2 -47 7 -75 10 -27 3 -66 8 -85 10 -19 3 -93 12 -165 20 -71
9 -141 18 -155 20 -14 2 -50 6 -80 9 -30 3 -71 8 -90 11 -19 3 -59 7 -89 11
-30 3 -62 7 -70 9 -9 2 -45 6 -81 10 -36 3 -72 8 -80 10 -8 2 -44 7 -80 10
-36 3 -76 8 -90 10 -14 2 -83 11 -155 20 -71 8 -146 18 -165 20 -19 3 -111 14
-205 26 -113 14 -177 27 -192 38 -29 21 -46 72 -39 119 3 20 8 60 11 87 5 45
9 78 20 155 4 25 5 40 25 205 6 50 13 101 15 115 2 14 7 54 10 90 3 36 8 72
10 80 2 8 6 42 10 75 3 33 8 71 10 85 2 14 9 70 15 125 6 55 13 111 15 125 3
14 7 50 10 80 3 30 8 66 10 80 2 14 7 50 10 80 3 30 15 127 26 215 26 209 29
233 34 275 4 33 11 83 20 160 2 19 15 125 29 235 14 110 28 225 31 255 3 30 8
66 10 80 2 14 7 50 10 80 6 56 13 115 20 160 2 14 6 50 10 80 3 30 9 73 12 95
2 22 7 60 10 85 2 25 6 56 8 70 1 14 6 52 10 85 3 33 8 71 10 85 2 14 7 52 11
85 3 33 8 67 9 75 2 8 6 47 11 85 4 39 8 72 9 75 1 3 5 39 9 80 4 41 15 90 24
109 18 38 61 61 107 56 16 -2 57 -6 90 -10z"/>
<path d="M2015 4412 c-64 -14 -118 -55 -153 -117 -15 -27 -17 -95 -19 -760 -1
-401 -3 -980 -5 -1285 -3 -573 -1 -627 33 -770 107 -460 387 -768 790 -869
202 -50 498 -63 661 -27 390 85 633 262 788 575 113 227 148 567 84 816 -84
328 -261 553 -519 663 -87 37 -240 79 -320 88 -27 3 -61 8 -75 10 -58 10 -507
14 -540 4 -84 -24 -130 -122 -132 -282 -1 -79 3 -101 24 -148 31 -67 73 -111
134 -140 39 -18 69 -22 198 -25 225 -6 295 -19 406 -75 165 -83 243 -229 235
-438 -2 -48 -8 -103 -14 -122 -30 -96 -107 -198 -184 -243 -170 -100 -463
-105 -646 -12 -164 83 -268 270 -297 535 -5 48 -6 659 -1 2060 1 195 -2 372
-7 393 -10 52 -73 119 -139 147 -43 19 -72 23 -167 25 -63 1 -124 0 -135 -3z"/>
<path d="M968 3060 c-77 -170 -109 -376 -82 -520 46 -245 242 -436 452 -442
111 -3 195 33 282 121 102 101 133 222 94 357 -51 177 -183 234 -402 174 -95
-26 -137 -23 -193 14 -80 53 -119 146 -120 282 0 41 -1 74 -2 74 -1 0 -14 -27
-29 -60z"/>
</g>
</svg>
