<?xml version="1.0" encoding="UTF-8"?>
<svg width="31px" height="32px" viewBox="0 0 31 32" version="1.1" xmlns="http://www.w3.org/2000/svg" xmlns:xlink="http://www.w3.org/1999/xlink">
    <!-- Generator: Sketch 51.3 (57544) - http://www.bohemiancoding.com/sketch -->
    <title>artista</title>
    <desc>Created with Sketch.</desc>
    <defs></defs>
    <g id="Landing" stroke="none" stroke-width="1" fill="none" fill-rule="evenodd">
        <g id="Mobile" transform="translate(-125.000000, -381.000000)" fill="#FFFFFF">
            <g id="Masthead" transform="translate(-120.000000, -3.000000)">
                <g id="Menu">
                    <g id="Actions" transform="translate(136.000000, 332.000000)">
                        <g id="Artist" transform="translate(2.000000, 40.000000)">
                            <g id="Group-4" transform="translate(106.000000, 12.000000)">
                                <g id="artista">
                                    <g id="Group" transform="translate(4.085293, 8.493918) rotate(14.847896) translate(-4.085293, -8.493918) translate(2.105494, 7.135426)">
                                        <path d="M0.0130909157,1.5965291 C0.868121648,1.72958577 1.7073948,1.49517056 2.40557697,1.01034013 C2.6894559,0.813207956 2.95329441,0.58083048 3.18287029,0.329509599 C3.20824404,0.301736001 3.37365826,0.0687547515 3.39733504,0.0726038101 C3.48291084,0.0865660812 3.96161815,0.674189018 3.94036562,1.06626469 C3.9252545,1.34588747 3.34949663,1.78226505 2.55693058,2.15766146 C1.87119286,2.48234087 0.816485259,2.75003912 0.66585892,2.67902021 C0.26626276,2.49071823 0.0971313619,1.98151043 0.0130909157,1.5965291 Z" id="Shape"></path>
                                    </g>
                                    <path d="M11.4830707,3.37116981 C7.76371717,6.42150943 7.9060202,12.8274717 12.9726869,14.6682264 C16.1576566,15.825434 19.2001616,14.7227925 20.7165253,16.9070943 C21.3427879,17.8092075 21.0189091,19.776 20.6993939,20.7759245 C19.306101,25.1356226 17.6133333,25.6408302 17.6433131,27.0432453 C17.6796768,28.7426415 18.9214545,29.3149434 20.7126465,29.2699623 C22.0861414,29.2354717 25.0782222,27.44 27.2563232,24.9798491 C28.9273535,23.0923774 34.828202,16.7903396 30.3460202,8.35562264 C26.1270303,0.416301887 16.0347475,-0.361735849 11.4830707,3.37116981 Z M26.0766869,18.2735849 C27.1750303,18.2735849 28.0668283,19.1064151 28.0668283,20.1323019 C28.0668283,21.1581887 27.1750303,21.9910189 26.0766869,21.9910189 C24.9782626,21.9910189 24.0865455,21.1581887 24.0865455,20.1323019 C24.0865455,19.1064151 24.9782626,18.2735849 26.0766869,18.2735849 Z M26.4892121,10.4886038 C28.132202,10.4886038 29.4660202,11.7343396 29.4660202,13.2687547 C29.4660202,14.8032453 28.132202,16.0489811 26.4892121,16.0489811 C24.846303,16.0489811 23.5124848,14.8032453 23.5124848,13.2687547 C23.5124848,11.7343396 24.846303,10.4886038 26.4892121,10.4886038 Z M22.5074747,4.24875472 C24.1503838,4.24875472 25.484202,5.49456604 25.484202,7.02898113 C25.484202,8.56339623 24.1503838,9.80920755 22.5074747,9.80920755 C20.8645657,9.80920755 19.5306667,8.56339623 19.5306667,7.02898113 C19.5306667,5.49456604 20.8645657,4.24875472 22.5074747,4.24875472 Z M15.3478788,3.46211321 C16.9907879,3.46211321 18.3246869,4.70784906 18.3246869,6.24226415 C18.3246869,7.77675472 16.9907879,9.02249057 15.3478788,9.02249057 C13.7049697,9.02249057 12.3710707,7.77675472 12.3710707,6.24226415 C12.3710707,4.70784906 13.7049697,3.46211321 15.3478788,3.46211321 Z" id="Shape"></path>
                                    <g id="Group" transform="translate(3.782869, 4.303128) rotate(18.551104) translate(-3.782869, -4.303128) translate(1.142779, 0.667201)">
                                        <g id="Livello1">
                                            <path d="M1.6330072,0.00785694678 C1.6330072,0.00785694678 -0.472173289,2.45354059 0.187580594,5.15114805 C0.636664287,6.98733322 3.03825076,8.04701803 4.70983012,6.31731955 C5.43607846,5.56581095 5.37522216,4.48924207 4.35865347,3.84062604 C3.84808701,3.51489709 2.70908977,3.10901056 2.20120815,2.76263622 C0.379635916,1.52065354 1.6330072,0.00785694678 1.6330072,0.00785694678 Z" id="Shape"></path>
                                        </g>
                                    </g>
                                    <g id="Group" transform="translate(9.079588, 20.410707) rotate(-3.436781) translate(-9.079588, -20.410707) translate(3.140192, 9.203155)">
                                        <path d="M0.0218989997,0.62483047 C0.0218989997,0.62483047 1.09575807,0.749811658 1.96088977,0.603622913 C3.26771864,0.382868097 3.98981998,0.00113207598 3.98981998,0.00113207598 C3.98981998,0.00113207598 7.88759951,15.8662713 11.7965306,22.2713308 C11.851076,22.3606893 10.9127322,22.4163874 10.6139846,22.0882364 C5.76299249,16.7605358 0.428525445,4.69268136 0.0218989997,0.62483047 Z" id="Shape"></path>
                                    </g>
                                </g>
                            </g>
                        </g>
                    </g>
                </g>
            </g>
        </g>
    </g>
</svg>