<?xml version="1.0" encoding="UTF-8"?>
<svg width="137px" height="154px" viewBox="0 0 137 154" version="1.1" xmlns="http://www.w3.org/2000/svg" xmlns:xlink="http://www.w3.org/1999/xlink">
    <!-- Generator: Sketch 51.3 (57544) - http://www.bohemiancoding.com/sketch -->
    <title>upload</title>
    <desc>Created with Sketch.</desc>
    <defs>
        <linearGradient x1="-1.11022302e-14%" y1="1.71737624e-14%" x2="98.1624384%" y2="100%" id="linearGradient-1">
            <stop stop-color="#F09819" offset="0%"></stop>
            <stop stop-color="#FF5858" offset="100%"></stop>
        </linearGradient>
    </defs>
    <g id="Landing" stroke="none" stroke-width="1" fill="none" fill-rule="evenodd">
        <g id="Desktop" transform="translate(-267.000000, -1112.000000)" stroke="url(#linearGradient-1)" stroke-width="3">
            <g id="How-it-works" transform="translate(0.000000, 809.000000)">
                <g id="HIW-artists">
                    <g id="Group-2" transform="translate(144.000000, 274.000000)">
                        <g id="1">
                            <g id="upload" transform="translate(125.000000, 31.000000)">
                                <g id="Group" transform="translate(0.000000, 41.000000)">
                                    <polyline id="Shape" points="0.223252174 52.4831075 47.5406609 0.504924731 81.3309391 34.9366882 106.03847 11.045086 131.5908 37.6072043"></polyline>
                                </g>
                                <g id="Group" transform="translate(12.000000, 22.000000)">
                                    <ellipse id="Oval" cx="8.02613333" cy="7.941" rx="7.69013333" ry="7.69"></ellipse>
                                </g>
                                <g id="Group" transform="translate(43.000000, 91.000000)">
                                    <path d="M0.0658918919,27.9117288 C0.0658918919,27.9117288 22.3335315,4.29349153 25.9127027,0.497830508 C26.0373243,0.365423729 26.213036,0.289491525 26.3973423,0.288067797 C26.5816486,0.287118644 26.7578378,0.360677966 26.8843694,0.491661017 C30.4917117,4.22230508 52.8238108,27.3189831 52.8238108,27.3189831" id="Shape"></path>
                                </g>
                                <g id="Group" transform="translate(67.000000, 91.000000)">
                                    <path d="M0.385385664,60.8049052 L0.468385664,0.320775862" id="Shape"></path>
                                </g>
                                <g id="Group" transform="translate(57.000000, 0.000000)">
                                    <path d="M0.248947368,11.9288915 C0.248947368,11.9288915 4.62694737,6.16894288 7.766,2.03974288 C8.53773684,1.02425146 9.68173684,0.436268599 10.8882632,0.435000028 C12.0947895,0.434365742 13.2393684,1.02044574 14.0128421,2.0346686 C17.2161579,6.23554288 21.7296316,12.1546972 21.7296316,12.1546972" id="Shape"></path>
                                </g>
                                <g id="Group" transform="translate(0.000000, 12.000000)">
                                    <path d="M105.214293,97.1440925 C105.214293,97.1440925 117.145358,97.1787021 125.389168,97.2029805 C127.422835,97.2086627 129.375331,96.4276213 130.815571,95.0318714 C132.255262,93.6356049 133.06478,91.7403397 133.06478,89.7629412 C133.06478,71.69361 133.06478,25.7511215 133.06478,7.70451901 C133.06478,5.73125299 132.258553,3.83908718 130.823249,2.4438538 C129.388494,1.04810386 127.442031,0.264479633 125.412203,0.264479633 C101.981706,0.264479633 31.3951446,0.264479633 7.96409859,0.264479633 C5.93481928,0.264479633 3.98835651,1.04810386 2.55305275,2.4438538 C1.11774898,3.83908718 0.311521796,5.73125299 0.311521796,7.70451901 C0.311521796,25.7779827 0.311521796,71.8310154 0.311521796,89.8440414 C0.311521796,93.9300451 3.70096669,97.2515373 7.90376866,97.2835642 C16.4700696,97.3491675 29.2238158,97.4473143 29.2238158,97.4473143" id="Shape"></path>
                                </g>
                            </g>
                        </g>
                    </g>
                </g>
            </g>
        </g>
    </g>
</svg>