<?xml version="1.0" encoding="UTF-8"?>
<svg width="164px" height="141px" viewBox="0 0 164 141" version="1.1" xmlns="http://www.w3.org/2000/svg" xmlns:xlink="http://www.w3.org/1999/xlink">
    <!-- Generator: Sketch 51.3 (57544) - http://www.bohemiancoding.com/sketch -->
    <title>vendita</title>
    <desc>Created with Sketch.</desc>
    <defs>
        <linearGradient x1="0%" y1="0%" x2="100%" y2="100%" id="linearGradient-1">
            <stop stop-color="#43E695" offset="0%"></stop>
            <stop stop-color="#3BB2B8" offset="100%"></stop>
        </linearGradient>
    </defs>
    <g id="Landing" stroke="none" stroke-width="1" fill="none" fill-rule="evenodd">
        <g id="Desktop" transform="translate(-1044.000000, -1119.000000)" stroke="url(#linearGradient-1)" stroke-width="3">
            <g id="How-it-works" transform="translate(0.000000, 809.000000)">
                <g id="HIW-artists">
                    <g id="Group-2" transform="translate(144.000000, 274.000000)">
                        <g id="3" transform="translate(762.000000, 0.000000)">
                            <g id="vendita" transform="translate(140.000000, 38.000000)">
                                <g id="Group">
                                    <g transform="translate(11.642990, 22.106526)" id="Oval">
                                        <ellipse cx="8.10211131" cy="8.80276295" rx="7.86027013" ry="8.43396075"></ellipse>
                                    </g>
                                    <g transform="translate(0.241453, 11.655278)" id="Shape">
                                        <path d="M131.723081,83.4787601 C131.723081,83.4787601 131.723081,28.1128629 131.723081,7.60936566 C131.723081,3.45721783 128.60559,0.0909298231 124.759417,0.0909298231 C101.969245,0.0909298231 29.7696306,0.0909298231 6.97945826,0.0909298231 C5.13235637,0.0909298231 3.3612388,0.883385587 2.05541844,2.29303341 C0.749171208,3.70315238 0.0157944927,5.6155055 0.0157944927,7.60936566 C0.0157944927,25.5183006 0.0157944927,70.5384569 0.0157944927,88.4615259 C0.0157944927,90.4582129 0.751305599,92.3724506 2.0601141,93.7830407 C3.36892261,95.1931597 5.14345521,95.9837309 6.99269149,95.9799618 C32.746679,95.9267231 120.981545,95.7439212 120.981545,95.7439212"></path>
                                    </g>
                                    <polyline id="Shape" points="0.914677883 89.5611193 45.7153242 39.4790863 81.9323361 77.4260816 101.30986 56.9116342 131.191065 87.4741931"></polyline>
                                    <g transform="translate(121.514693, 95.159327)" id="Shape">
                                        <polygon points="0.168746487 0.143258994 0.112993242 20.6469518 19.8031808 41.4656538 38.0527045 20.6987176 19.2240904 0.29574756"></polygon>
                                    </g>
                                    <path d="M54.5602334,10.4439293 C54.5602334,10.4439293 58.7889991,5.69924005 62.1847084,1.88941543 C63.2609016,0.682224664 64.7654992,0.00597851023 66.334012,0.0251692795 C67.9025248,0.0443600487 69.3920073,0.756703126 70.4414253,1.99039543 C73.6583448,5.77052005 77.6072658,10.4110308 77.6072658,10.4110308" id="Shape"></path>
                                </g>
                                <g id="Group" transform="translate(129.956044, 103.252747)">
                                    <path d="M7.52498901,0.417917448 C5.77160947,-0.133255964 4.14517329,-0.24215331 2.60542012,1.10569016 C0.767000845,2.71526936 -0.952691462,7.04728223 0.995827557,9.39096328 C5.14921724,14.3859126 10.5063094,3.0658424 14.7209112,9.29305119 C16.3198225,11.655837 16.5359138,15.0837154 14.7537768,17.3758135 C13.6186813,18.8358976 10.5950465,20.1245162 9.37285714,18.160543" id="Shape"></path>
                                </g>
                                <g id="Group" transform="translate(128.175824, 101.472527)">
                                    <path d="M0.125505495,0.424466316 C6.11817033,7.81454563 12.3809835,14.7081758 19.4262033,21.0120115" id="Shape"></path>
                                </g>
                            </g>
                        </g>
                    </g>
                </g>
            </g>
        </g>
    </g>
</svg>