<?xml version="1.0" encoding="UTF-8"?>
<svg width="128px" height="139px" viewBox="0 0 128 139" version="1.1" xmlns="http://www.w3.org/2000/svg" xmlns:xlink="http://www.w3.org/1999/xlink">
    <!-- Generator: Sketch 51.3 (57544) - http://www.bohemiancoding.com/sketch -->
    <title>Logo</title>
    <desc>Created with Sketch.</desc>
    <defs></defs>
    <g id="Landing" stroke="none" stroke-width="1" fill="none" fill-rule="evenodd">
        <g id="Mobile" transform="translate(-114.000000, -2773.000000)" fill="#FFFFFF">
            <g id="Footer" transform="translate(0.000000, 2693.000000)">
                <g id="Logo" transform="translate(114.000000, 80.000000)">
                    <path d="M63.8313613,20.6334027 L70.8865139,7.47056343 L77.7324179,21.1570248 L82.5123967,21.1570248 L71.7958945,0.737688916 C71.5264097,0.224209808 70.8916921,0.0264133145 70.378213,0.295898083 C70.1953414,0.39187298 70.044834,0.539646261 69.9455229,0.72072778 L59.2396694,20.2415455 L63.8313613,20.6334027 Z" id="Triangle"></path>
                    <path d="M16.5622375,10.6493062 L125.494533,24.0245103 C127.029404,24.2129687 128.120886,25.610003 127.932428,27.1448736 L114.558126,136.069824 C114.369667,137.604694 112.972633,138.696177 111.437763,138.507719 L2.50546702,125.132515 C0.970596336,124.944056 -0.120886462,123.547022 0.0675719614,122.012151 L13.4418741,13.0872012 C13.6303325,11.5523306 15.0273668,10.4608478 16.5622375,10.6493062 Z M45.9394199,68.5349916 L45.9394199,32.7522195 C45.9394199,29.7729187 48.3547754,27.3577181 51.3342674,27.3577181 C52.588566,27.3577181 53.8428647,27.3577181 55.0971633,27.3577181 C57.0635095,27.3577181 58.9263601,28.1859983 60.3062521,29.5664508 C61.6861396,30.9469032 61.7185436,32.4252643 61.7551385,33.3281814 C61.7551385,49.4644449 61.5837438,65.3228036 61.5434835,81.3132266 C61.474489,85.420063 61.4584681,91.6523175 61.8379372,95.1724755 C62.9107015,102.86746 66.7848491,109.654297 77.844658,109.32212 C82.9780158,109.020417 87.978706,107.7281 90.2238062,101.516152 C91.2240494,98.2122933 91.0756251,91.974166 87.7495712,88.9643257 C82.9745841,84.5756253 77.3453103,85.0578648 71.8034658,84.9630531 C68.2468505,84.9608617 65.2876576,81.7822011 65.2876576,77.6408439 C65.2876576,73.4994867 66.1617722,69.7566746 70.0441456,69.6770561 C77.4045983,69.7597132 85.3720807,69.2627772 92.8434865,72.6584091 C100.953596,76.01112 106.067897,85.429325 106.434708,95.0856695 C106.651883,104.337012 104.070492,112.097692 97.4501455,118.219883 C92.376353,122.710072 84.2695877,125.156272 77.553081,125.248016 C66.4840139,125.214503 55.6387894,122.194509 49.468792,109.813359 C44.8798099,100.872221 45.7561135,92.116851 45.7561135,89.0908533 C45.7561135,86.0648555 45.9394199,68.5349916 45.9394199,68.5349916 Z M24.6989075,59.8184687 C24.6989075,59.8184687 23.9328488,63.3627606 25.3716067,66.7897577 C26.0960484,68.515316 28.6660977,70.8275818 31.2188966,70.0338224 C36.357954,68.2407857 41.5114508,68.0420025 42.94797,74.9344328 C43.4730772,77.7917417 43.0844914,82.0665073 38.0148564,85.0462533 C34.6883163,87.1977336 27.933214,87.1355144 23.457009,79.8350432 C18.2203631,71.2943358 24.6989075,59.8184687 24.6989075,59.8184687 Z M20.7201418,17.1192769 C19.7334392,16.998125 18.8353457,17.6997925 18.7141939,18.6864951 L6.5378731,117.85467 C6.41672126,118.841372 7.11838877,119.739466 8.10509135,119.860618 L107.279858,132.037748 C108.266561,132.1589 109.164654,131.457232 109.285806,130.47053 L121.462127,31.302355 C121.583279,30.3156524 120.881611,29.4175589 119.894909,29.2964071 L20.7201418,17.1192769 Z" id="Combined-Shape"></path>
                </g>
            </g>
        </g>
    </g>
</svg>